<?xml version="1.0" encoding="UTF-8" standalone="no"?>
<!DOCTYPE svg PUBLIC "-//W3C//DTD SVG 1.1//EN" "http://www.w3.org/Graphics/SVG/1.1/DTD/svg11.dtd">
<svg version="1.1" xmlns="http://www.w3.org/2000/svg" xmlns:xlink="http://www.w3.org/1999/xlink" preserveAspectRatio="xMidYMid meet" viewBox="158.9999999999999 129 144.00000000000006 84" width="140" height="80"><defs><path d="M295 130C297.76 130 300 132.24 300 135C300 138 300 142 300 145C300 147.76 297.76 150 295 150C268 150 192 150 165 150C162.24 150 160 147.76 160 145C160 142 160 138 160 135C160 132.24 162.24 130 165 130C192 130 268 130 295 130Z" id="b1li1MKJ07"></path><path d="M295 190C297.76 190 300 192.24 300 195C300 198 300 202 300 205C300 207.76 297.76 210 295 210C268 210 192 210 165 210C162.24 210 160 207.76 160 205C160 202 160 198 160 195C160 192.24 162.24 190 165 190C192 190 268 190 295 190Z" id="c1mMeugPfs"></path><path d="M295 160C297.76 160 300 162.24 300 165C300 168 300 172 300 175C300 177.76 297.76 180 295 180C268 180 192 180 165 180C162.24 180 160 177.76 160 175C160 172 160 168 160 165C160 162.24 162.24 160 165 160C192 160 268 160 295 160Z" id="a1aCtVHDql"></path></defs><g><g><use xlink:href="#b1li1MKJ07" opacity="1" fill="#0e363d" fill-opacity="1"></use></g><g><use xlink:href="#c1mMeugPfs" opacity="1" fill="#0e363d" fill-opacity="1"></use></g><g><use xlink:href="#a1aCtVHDql" opacity="1" fill="#0e363d" fill-opacity="1"></use></g></g></svg>